<svg width="333" height="323" viewBox="0 0 333 323" fill="none" xmlns="http://www.w3.org/2000/svg">
<path d="M30.1439 186.144L164 30L303.144 186.144L164 281L30.1439 186.144Z" fill="#1E2019"/>
<path d="M167 59V249" stroke="#FCFAF9" stroke-width="10" stroke-linecap="round"/>
<path d="M167 59L69 186.5L167 249.5" stroke="#FCFAF9" stroke-width="10" stroke-linecap="round"/>
<path d="M257.459 191.445L260.404 195.486L268.486 189.596L265.541 185.555L261.5 188.5L257.459 191.445ZM171.541 56.5554C169.915 54.3237 166.787 53.8328 164.555 55.459C162.324 57.0853 161.833 60.2128 163.459 62.4446L167.5 59.5L171.541 56.5554ZM261.5 188.5L265.541 185.555L171.541 56.5554L167.5 59.5L163.459 62.4446L257.459 191.445L261.5 188.5Z" fill="#FCFAF9"/>
<path d="M210.956 222.441L213.897 226.485L221.985 220.603L219.044 216.559L215 219.5L210.956 222.441ZM171.044 150.559C169.419 148.326 166.292 147.832 164.059 149.456C161.826 151.081 161.332 154.208 162.956 156.441L167 153.5L171.044 150.559ZM215 219.5L219.044 216.559L171.044 150.559L167 153.5L162.956 156.441L210.956 222.441L215 219.5Z" fill="#FCFAF9"/>
<circle cx="165" cy="15" r="15" fill="#52528C"/>
<circle cx="15" cy="186" r="15" fill="#52528C"/>
<circle cx="164" cy="296" r="15" fill="#52528C"/>
<circle cx="318" cy="186" r="15" fill="#52528C"/>
</svg>
